<?xml version="1.0" encoding="utf-8"?>
<!-- Designed by Vexels.com - 2019 All Rights Reserved - https://vexels.com/terms-and-conditions/  -->
<svg version="1.1" id="Layer_1" xmlns="http://www.w3.org/2000/svg" xmlns:xlink="http://www.w3.org/1999/xlink" x="0px" y="0px"
	 viewBox="0 0 1200 1200" enable-background="new 0 0 1200 1200" xml:space="preserve">
<g>
	<g>
		<path d="M1010.522,681.049c15.452-16.571,28.633-35.531,38.965-57.053c15.13-31.516,22.802-70.934,22.802-117.152
			c0-22.491-3.408-44.271-9.455-65.331c0.032-0.282,0.082-0.532,0.113-0.817C1030.07,270.313,934.536,176.54,842.417,123.87
			c-32.963-21.92-72.515-39.758-118.499-52.646c-19.305-5.404-40.217-9.455-61.913-12.802c-2.079-0.442-4.122-0.872-5.949-1.259
			v0.325C622.862,52.702,587.368,50,549.254,50c-61.487,0-118.887,6.397-170.603,19.023
			c-52.196,12.755-97.635,31.293-135.061,55.098c-37.958,24.141-67.967,53.252-89.194,86.527
			c-21.616,33.936-32.574,71.735-32.574,112.358c0,9.517,0,24.712,0,24.712c1.805,42.042,60.607,167.522,117.792,202.377
			l0.208-0.262c2.451,10.002,5.461,19.512,9.485,28.067c4.312,9.185,9.305,17.537,14.715,25.33
			c-22.967,20.994-44.009,45.099-62.5,72.244c-22.621,33.221-40.969,72.557-54.538,116.913
			c-13.567,44.325-20.447,97.362-20.447,157.633v16.016l112.111,172.171h16.016h134.978h9.899l4.426-8.853
			c3.003-6.006,7.527-11.734,13.447-17.029c5.006-4.387,12.179-8.821,21.202-13.075c8.211-3.875,20.288-5.838,35.9-5.838
			c19.365,0,40.538,2.905,62.934,8.634c23.723,6.092,48.645,12.559,74.746,19.43c26.282,6.925,54.129,13.431,82.766,19.343
			c29.438,6.092,60.375,9.181,91.943,9.181c39.216,0,76.687-3.261,111.374-9.697c36.693-6.831,68.839-22.968,95.554-47.977
			c26.463-24.775,47.446-60.975,62.368-107.599c14.584-45.561,21.978-107.388,21.978-183.761V784.95L1010.522,681.049z
			 M167.898,219.262c20.043-31.422,48.134-58.636,84.287-81.628c36.145-22.992,79.571-40.665,130.262-53.053
			c50.691-12.372,106.285-18.565,166.806-18.565c40.802,0,78.175,3.081,112.836,8.594c20.08,3.195,39.486,6.991,57.505,12.035
			c49.111,13.764,90.371,32.72,123.772,56.885c33.393,24.165,58.55,52.255,75.45,84.287c10.584,20.079,17.462,41.142,21.417,62.988
			c2.355,13.009,3.929,26.225,3.929,39.864c0,44.013-7.077,80.752-21.224,110.219c-0.867,1.806-1.927,3.417-2.832,5.185
			c-13.856,27.074-31.949,49.831-54.631,67.903c-4.214,3.355-8.679,6.475-13.116,9.619h0.536l-8.987,6.835
			c-6.718,4.54-13.378,8.919-20.117,13.185c-12.876,8.149-26.18,15.695-41.719,21.819c-31.445,12.372-64.447,23.273-99.02,32.704
			c-13.299,3.629-26.928,7.167-40.34,10.765c-0.024,0.008-0.05,0.012-0.074,0.02c-21.445,5.752-42.761,11.539-64.503,17.212
			c-35.363,9.244-68.967,20.833-100.796,34.769c-21.85,9.588-42.257,20.857-61.422,33.58c-8.752,5.81-17.325,11.832-25.516,18.299
			c-26.135,20.63-46.859,47.062-62.179,79.266l10.018,3.55c7.859-9.822,18.276-20.536,31.242-32.126
			c12.966-11.59,27.895-22.397,44.795-32.423c0.514-0.305,1.123-0.54,1.641-0.845c15.483-9.029,32.838-16.696,51.906-23.117
			c1.258-0.422,2.353-0.962,3.627-1.376c21.216-6.882,44.396-10.323,69.546-10.323c25.541,0,47.156,1.376,64.838,4.129
			c13.249,2.065,25.32,4.196,36.803,6.366c3.843,0.723,7.881,1.439,11.526,2.174c14.538,2.956,28.294,5.803,41.26,8.555
			c12.966,2.753,27.308,4.129,43.027,4.129c29.858,0,53.24-6.491,70.14-19.457c16.892-12.966,25.346-37.131,25.346-72.494h116.115
			c0,38.218-1.855,72.384-5.522,102.598c-2.373,19.562-5.561,37.346-9.472,53.557c-1.58,6.546-3.274,12.841-5.104,18.839
			c-0.386,1.267-0.72,2.643-1.118,3.887c-6.896,21.545-15.05,40.525-24.42,57.029c-9.853,17.357-21.051,31.973-33.638,43.758
			c-24.563,22.992-53.741,37.631-87.532,43.919c-33.799,6.272-69.945,9.431-108.452,9.431c-30.648,0-60.216-2.956-88.705-8.853
			c-28.489-5.881-55.798-12.262-81.925-19.144c-26.135-6.882-51.09-13.357-74.856-19.457c-23.781-6.084-46.077-9.134-66.902-9.134
			c-18.073,0-32.321,2.456-42.73,7.367c-10.417,4.911-18.769,10.119-25.048,15.625c-7.468,6.679-13.169,13.951-17.095,21.803
			h-13.457H142.553c0-58.949,6.577-109.922,19.746-152.949c13.162-43.027,30.648-80.549,52.458-112.581
			c17.613-25.854,37.377-48.623,59.088-68.592c5.174-4.763,10.36-9.502,15.768-13.928c27.073-22.159,50.066-41.494,77.724-58.355
			c1.04-0.633,1.981-1.329,3.035-1.955c5.879-3.496,16.647-10.71,22.486-14.061l7.102-4.004h0.086
			c5.309-3.011,10.591-5.932,15.871-8.841c15.2-8.379,30.319-16.473,45.218-23.77c20.861-10.209,39.975-20.638,57.373-31.285
			c6.029-3.687,11.868-7.402,17.482-11.148c8.198-5.462,15.583-11.152,22.561-16.95c11.58-9.623,21.681-19.656,29.898-30.206
			c4.681-6.006,8.23-12.559,11.247-19.363c5.465-12.325,8.5-25.815,8.5-40.759c0-34.566-13.467-60.31-40.376-77.217
			c-17.935-11.253-38.487-18.401-61.21-22.159c-11.39-1.885-23.157-3.179-35.753-3.179c-26.722,0-50.683,1.971-71.907,5.896
			c-21.216,3.926-41.463,10.808-60.709,20.63c15.988,4.716,30.452,11.543,43.648,20.114c6.581,4.27,12.944,8.845,18.828,14.077
			c17.682,15.719,26.526,38.898,26.526,69.538c0,4.411-0.428,8.751-1.055,13.06c-1.327,9.134-3.945,18.057-8.079,26.73
			c-0.657,1.376-1.47,2.69-2.191,4.039c-5.969,11.191-13.993,21.564-24.336,31.027c-11.597,10.62-26.229,18.862-43.911,24.759
			s-37.725,8.837-60.122,8.837c-16.714,0-33.904-2.698-51.575-8.082c-0.196-0.059-0.39-0.098-0.587-0.16
			c-17.885-5.505-33.995-14.342-48.329-26.526c-14.35-12.168-26.143-28.09-35.371-47.751c-9.236-19.629-13.85-43.606-13.85-71.9
			C137.837,285.281,147.863,250.715,167.898,219.262z"/>
	</g>
</g>
</svg>
